<svg width="18" height="18" viewBox="0 0 18 18" fill="none" xmlns="http://www.w3.org/2000/svg">
<path fill-rule="evenodd" clip-rule="evenodd" d="M7.75 2.12501C7.01131 2.12501 6.27986 2.2705 5.5974 2.55319C4.91495 2.83587 4.29485 3.2502 3.77252 3.77253C3.25019 4.29486 2.83586 4.91496 2.55318 5.59741C2.27049 6.27987 2.125 7.01132 2.125 7.75001C2.125 8.48869 2.27049 9.22015 2.55318 9.9026C2.83586 10.5851 3.25019 11.2052 3.77252 11.7275C4.29485 12.2498 4.91495 12.6641 5.5974 12.9468C6.27986 13.2295 7.01131 13.375 7.75 13.375C9.24184 13.375 10.6726 12.7824 11.7275 11.7275C12.7824 10.6726 13.375 9.24185 13.375 7.75001C13.375 6.25817 12.7824 4.82743 11.7275 3.77253C10.6726 2.71764 9.24184 2.12501 7.75 2.12501ZM0.875 7.75001C0.875146 6.64592 1.1412 5.55811 1.65066 4.57859C2.16012 3.59907 2.89799 2.75666 3.80186 2.12261C4.70574 1.48856 5.74902 1.08153 6.84347 0.935946C7.93791 0.790362 9.05132 0.910509 10.0895 1.28622C11.1277 1.66194 12.0601 2.28216 12.808 3.09444C13.5558 3.90672 14.0969 4.88715 14.3857 5.95281C14.6745 7.01846 14.7023 8.13799 14.4669 9.21669C14.2315 10.2954 13.7398 11.3015 13.0333 12.15L16.9417 16.0583C17.0031 16.1156 17.0523 16.1846 17.0865 16.2612C17.1206 16.3379 17.139 16.4207 17.1405 16.5046C17.142 16.5885 17.1265 16.6718 17.0951 16.7497C17.0637 16.8275 17.0169 16.8982 16.9575 16.9575C16.8982 17.0169 16.8275 17.0637 16.7497 17.0951C16.6718 17.1265 16.5885 17.142 16.5046 17.1405C16.4206 17.139 16.3379 17.1207 16.2612 17.0865C16.1845 17.0523 16.1155 17.0031 16.0583 16.9417L12.15 13.0333C11.146 13.8696 9.92452 14.4024 8.6286 14.5694C7.33268 14.7364 6.01602 14.5306 4.83284 13.9762C3.64967 13.4218 2.64899 12.5416 1.94803 11.439C1.24707 10.3363 0.874856 9.05664 0.875 7.75001Z" fill="black"/>
</svg>
