<svg width="30" height="32" viewBox="0 0 30 32" fill="none" xmlns="http://www.w3.org/2000/svg">
<path d="M21.0457 19.731H21.9827V21.7958H21.0457V19.731ZM4.50986 21.3307H5.4476V28.7282H4.50986V21.3307ZM21.0457 14.3983H21.9827V18.596H21.0457V14.3983ZM21.6441 9.59904H21.9827V11.6636H21.0457V10.2359V9.59904H21.6441ZM16.536 15.4649H17.4728V16.9963H16.536V15.4649ZM3.59157 6.39927H3.94439V19.1294H3.00665V6.39927H3.59157ZM9.01973 8.53245H9.95655V14.3299H9.01973V11.7624V11.0817V10.4011V8.53245ZM2.00443 20.7976H2.94217V23.3955H2.00443V20.7976ZM14.0269 3.13113C13.9689 7.47145 13.1713 9.99155 12.7558 10.1341C12.32 9.99058 11.5215 7.47145 11.4643 3.13113H14.0269ZM25.0312 4.58367C25.026 4.82409 25.0195 5.06671 25.0125 5.30908C25.0054 5.55243 24.9974 5.79578 24.9882 6.0401C24.8963 8.59232 24.7177 11.0961 24.5213 12.6112C24.3489 11.2862 24.1907 9.20263 24.0926 6.99329C24.0818 6.76917 24.0729 6.54479 24.064 6.3175C24.0548 6.09119 24.0468 5.86513 24.0397 5.63785C24.0121 4.791 23.9952 3.94391 23.9897 3.13113H25.0518C25.049 3.60663 25.042 4.09138 25.0312 4.58367ZM28.4003 0.998219L27.3329 2.13318H1.80527L3.13882 0.998219H28.4003ZM12.9641 21.6123V13.3317H12.0262V21.6123C12.0262 22.4591 11.9127 23.2872 11.6884 24.0703L10.9007 26.8318C10.6496 27.7091 10.5229 28.6341 10.5229 29.5799V30.9298H8.02277C8.08085 30.676 8.16843 30.3869 8.26492 30.0722C8.55601 29.1171 8.95525 27.8081 8.95525 26.0959C8.95525 24.5514 8.64176 23.7557 8.36576 23.0541C8.0541 22.2615 7.78428 21.576 8.02186 19.7663L8.08634 19.272L7.15821 19.1341L7.09304 19.6273C6.82048 21.7091 7.16621 22.5893 7.5012 23.4401C7.76644 24.1141 8.01751 24.7519 8.01751 26.0959C8.01751 27.6502 7.66012 28.8224 7.37246 29.7634C7.24395 30.1883 7.12688 30.5723 7.06446 30.9298H2.94217V26.1303H2.00443V30.9298H0.937962V3.77674V3.13113H0.973634H1.66328H2.00443V3.46866V4.1493V4.73114H2.59301H2.94217V4.39557V3.13113H6.5143V7.92505V8.60642V9.28706V16.9963H7.45204V10.214V9.53235V8.85171V3.13113H10.5264C10.5737 6.31945 11.0802 11.1302 12.7453 11.1302C14.4111 11.1302 14.9167 6.31945 14.964 3.13113H15.9063C15.8516 8.10926 14.9917 13.0144 14.4575 15.7747C14.452 15.8014 14.4468 15.826 14.4422 15.8528C14.4083 16.0258 14.3761 16.1901 14.3459 16.3451C14.3137 16.5047 14.2842 16.6568 14.2565 16.7967C14.2485 16.8366 14.2421 16.869 14.2341 16.907C14.2332 16.9116 14.2323 16.9174 14.2316 16.923C14.0804 17.6825 14.0306 17.9477 14.0306 18.0969V25.0133L13.0284 28.1464V30.9298H11.4607V29.5799C11.4607 28.7321 11.5741 27.905 11.7975 27.1216L12.5852 24.3604C12.8363 23.4829 12.9641 22.5579 12.9641 21.6123ZM25.4867 29.8233C25.4858 29.5695 25.484 29.3222 25.4814 29.0838C25.4796 28.827 25.476 28.579 25.4734 28.3403C25.4055 23.6759 25.108 22.3973 24.0192 22.3973C23.2708 22.3973 22.6687 23.1882 22.2461 24.6427C22.1945 24.8203 22.1453 25.0087 22.0989 25.2063C22.0541 25.3946 22.0122 25.5912 21.9738 25.7966C21.7166 27.1521 21.5691 28.8813 21.5494 30.9298H19.8971C19.8255 30.5723 19.7318 30.1834 19.6273 29.751C19.3371 28.5581 18.977 27.0732 18.977 25.5618C18.977 25.3528 18.9797 24.9393 18.9843 24.4229C18.9895 23.8156 18.9957 23.0923 18.9985 22.3869C18.9994 22.1389 19.0003 21.8936 19.0012 21.6558C19.0012 21.3984 19.0012 21.1521 18.9994 20.9222C18.9976 20.3678 18.9905 19.9125 18.9763 19.6655L18.9468 19.1674L18.0107 19.2302L18.0401 19.7283C18.042 19.7568 18.0427 19.7928 18.0445 19.8271C18.0525 20.0067 18.0571 20.2654 18.0598 20.5781C18.0623 20.8015 18.0632 21.0504 18.0632 21.3147C18.0642 22.3146 18.0543 23.5362 18.0472 24.4135C18.0427 24.9335 18.0392 25.3508 18.0392 25.5618C18.0392 27.1998 18.4161 28.7528 18.7197 30.0009C18.8011 30.3384 18.8752 30.6455 18.937 30.9298H13.9652V28.3119L14.9683 25.1788L14.9674 18.1083C14.9702 18.0665 14.988 17.9621 15.0138 17.8205C15.0433 17.6589 15.0854 17.4487 15.13 17.2206C15.1444 17.1484 15.1586 17.0761 15.173 17.0028C15.197 16.8841 15.2221 16.7558 15.2489 16.6227C15.2658 16.5344 15.2837 16.4422 15.3024 16.347C15.3559 16.0752 15.4131 15.7786 15.4739 15.4593C15.5267 15.1826 15.5811 14.8908 15.6365 14.5808C16.159 11.6882 16.7967 7.44493 16.844 3.13113H18.5402V8.99724H19.4782V3.13113H23.0519C23.059 4.19772 23.0903 5.3945 23.1395 6.59614C23.1395 6.59614 23.1395 6.59615 23.1395 6.59712C23.1484 6.82124 23.1583 7.04658 23.1688 7.27094C23.1795 7.49531 23.1903 7.71869 23.2019 7.94111C23.2431 8.72347 23.2913 9.48758 23.3448 10.195C23.7004 14.8631 24.0809 14.8631 24.5213 14.8631C24.9606 14.8631 25.341 14.8631 25.6966 10.195C25.8171 8.60837 25.9093 6.74336 25.9566 5.00952C25.9628 4.7652 25.9692 4.52381 25.9735 4.28606C25.979 4.04199 25.9824 3.80229 25.9852 3.56746C25.987 3.42024 25.9886 3.27471 25.9895 3.13113H26.3961H27.0587V3.83661V30.1579V30.8918V30.9298H26.4523H25.4904C25.4904 30.5448 25.4885 30.1759 25.4867 29.8233ZM22.4874 30.9298C22.5043 29.1502 22.6143 27.7699 22.7686 26.7082C22.8009 26.4887 22.8349 26.2833 22.8706 26.0903C22.909 25.8774 22.9499 25.6806 22.992 25.4973C23.3682 23.8642 23.8433 23.3936 24.0139 23.3916C24.3212 23.597 24.4534 25.307 24.5105 27.2368C24.5176 27.4857 24.5238 27.7385 24.5284 27.9916C24.5336 28.2406 24.5373 28.4905 24.5407 28.7387C24.5506 29.5125 24.5524 30.2691 24.5533 30.9298H22.4874ZM29.0632 29.0884L27.9958 30.2243V2.83839L28.2441 2.57412L29.0632 1.70342V29.0884ZM29.9975 0.476236C29.9957 0.450686 29.9911 0.42683 29.9867 0.402983C29.9822 0.379377 29.9778 0.354567 29.9698 0.330961C29.968 0.323175 29.968 0.315632 29.9643 0.308088C29.9591 0.292759 29.9492 0.281313 29.9421 0.2672C29.9305 0.245298 29.9197 0.2234 29.9053 0.202473C29.8921 0.183491 29.8758 0.166458 29.8598 0.149179C29.8438 0.132147 29.8278 0.116083 29.8098 0.101727C29.791 0.0866394 29.7707 0.0751934 29.7492 0.0627823C29.7357 0.0552387 29.7249 0.0447769 29.7107 0.0379639C29.7043 0.0352859 29.6963 0.035284 29.6892 0.0323639C29.6678 0.0238476 29.6447 0.0189934 29.6223 0.0153427C29.5992 0.00950241 29.5767 0.004879 29.5534 0.00390625C29.5454 0.00390625 29.5392 0 29.5322 0H2.97441C2.86808 0 2.7645 0.0389442 2.6815 0.109272L0.304576 2.13318H0V31.9268H2.00443H2.94217H7.0153H7.95303H10.5229H11.4607H13.0284H13.9652H19.111L19.1217 32L19.5479 31.9268H21.5469H22.4837H24.5533H25.4904H27.5188C27.5215 31.9268 27.5241 31.9268 27.5277 31.9268H27.9958V31.635L29.8635 29.6483C29.9511 29.5541 30 29.4278 30 29.2957V0.499109C30 0.491566 29.9975 0.48378 29.9975 0.476236Z" fill="#23D899"/>
</svg>
